<?xml version="1.0"?>
<svg width="139" height="20" xmlns="http://www.w3.org/2000/svg" xmlns:svg="http://www.w3.org/2000/svg">
 <defs>
  <linearGradient id="a" x1="72.195%" x2="17.503%" y1="0%" y2="100%">
   <stop offset="0%" stop-color="#33D35E"/>
   <stop offset="100%" stop-color="#2AB6D9"/>
  </linearGradient>
 </defs>
 <g class="layer">
  <title>Layer 1</title>
  <g fill="none" fill-rule="evenodd" id="svg_1">
   <path d="m35.75,15.85c2.86,0 5.16,-1.63 5.96,-4.22l-3.9,0c-0.38,0.67 -1.14,1.07 -2.06,1.07c-1.23,0 -2.06,-0.68 -2.32,-1.98l8.44,0c0.05,-0.35 0.08,-0.69 0.08,-1.04c0,-3.33 -2.53,-5.95 -6.2,-5.95c-3.56,0 -6.17,2.57 -6.17,6.05c0,3.47 2.63,6.07 6.17,6.07zm2.35,-7.3l-4.6,0c0.32,-1.13 1.11,-1.75 2.25,-1.75c1.18,0 2,0.61 2.35,1.75zm10.94,7.3c1.32,0 2.5,-0.44 3.43,-1.19l0.34,0.8l3.03,0l0,-11.37l-2.92,0l-0.4,0.88c-0.94,-0.77 -2.14,-1.22 -3.48,-1.22c-3.47,0 -5.96,2.51 -5.96,6.03c0,3.53 2.49,6.07 5.96,6.07zm0.53,-3.47c-1.47,0 -2.55,-1.11 -2.55,-2.59c0,-1.48 1.07,-2.59 2.55,-2.59c1.46,0 2.54,1.11 2.54,2.59c0,1.48 -1.08,2.59 -2.54,2.59zm13.12,3.47c3.02,0 5.03,-1.56 5.03,-3.93c0,-2.89 -2.39,-3.26 -4.19,-3.58c-1.08,-0.19 -1.95,-0.34 -1.95,-0.99c0,-0.53 0.43,-0.84 1.05,-0.84c0.71,0 1.2,0.34 1.2,1.07l3.67,0c-0.05,-2.31 -1.92,-3.85 -4.82,-3.85c-2.91,0 -4.85,1.47 -4.85,3.75c0,2.76 2.33,3.29 4.1,3.58c1.09,0.18 1.95,0.37 1.95,1.02c0,0.59 -0.54,0.88 -1.12,0.88c-0.74,0 -1.32,-0.38 -1.32,-1.21l-3.77,0c0.04,2.46 1.92,4.1 5.02,4.1zm8.1,3.85c2.94,0 4.34,-1.25 5.88,-4.73l4.76,-10.86l-4.2,0l-2.25,6.26l-2.42,-6.26l-4.25,0l4.7,10.43c-0.53,1.41 -0.98,1.8 -2.48,1.8l-1.08,0l0,3.36l1.34,0zm18.51,-3.85c3.5,0 5.97,-2.52 5.97,-6.05s-2.47,-6.05 -5.97,-6.05a5.33,5.33 0 0 0 -2.83,0.78l0,-4.53l-3.87,0l0,15.47l2.9,0l0.37,-0.84c0.92,0.77 2.1,1.22 3.43,1.22zm-0.53,-3.47c-1.46,0 -2.54,-1.11 -2.54,-2.58c0,-1.49 1.08,-2.59 2.54,-2.59c1.47,0 2.55,1.1 2.55,2.59c0,1.47 -1.09,2.58 -2.55,2.58zm13.6,3.47c1.32,0 2.5,-0.44 3.43,-1.19l0.34,0.8l3.02,0l0,-11.37l-2.91,0l-0.41,0.88c-0.93,-0.77 -2.13,-1.22 -3.47,-1.22c-3.48,0 -5.96,2.51 -5.96,6.03c0,3.53 2.48,6.07 5.96,6.07zm0.52,-3.47c-1.46,0 -2.54,-1.11 -2.54,-2.59c0,-1.48 1.07,-2.59 2.54,-2.59c1.47,0 2.55,1.11 2.55,2.59c0,1.48 -1.08,2.59 -2.55,2.59zm12.66,3.09l0,-6.07c0,-1.44 0.7,-2.3 1.92,-2.3c0.99,0 1.48,0.66 1.48,1.98l0,6.39l3.92,0l0,-6.93c0,-2.89 -1.73,-4.77 -4.37,-4.77c-1.47,0 -2.74,0.56 -3.58,1.51l-0.54,-1.17l-2.75,0l0,11.36l3.92,0zm13.75,0l0,-4.8l2.84,4.8l4.62,0l-3.9,-5.95l3.54,-5.41l-4.4,0l-2.7,4.45l0,-8.56l-3.92,0l0,15.47l3.92,0z" fill="#ffffff" fill-rule="nonzero" id="svg_2"/>
   <g fill="url(#a)" id="svg_3">
    <path d="m10.8,1l-10.8,19.7l5.99,0l10.8,-19.7l-5.99,0z" id="svg_4"/>
    <path d="m18.17,1l-10.8,19.7l5.98,0l10.81,-19.7l-5.99,0z" id="svg_5" opacity="0.5"/>
    <path d="m25.54,1l-10.8,19.7l5.98,0l10.8,-19.7l-5.98,0z" id="svg_6" opacity="0.15"/>
   </g>
  </g>
 </g>
</svg>